<?xml version="1.0" encoding="utf-8"?>
<!-- Generator: Adobe Illustrator 25.4.1, SVG Export Plug-In . SVG Version: 6.00 Build 0)  -->
<svg version="1.1" id="Layer_1" xmlns="http://www.w3.org/2000/svg" xmlns:xlink="http://www.w3.org/1999/xlink" x="0px" y="0px"
	 viewBox="0 0 1080 1080" style="enable-background:new 0 0 1080 1080;" xml:space="preserve">
<style type="text/css">
	.st0{fill:#222222;}
	.st1{fill:#5D5D5D;}
	.st2{fill:#33CBCB;}
</style>
<path class="st0" d="M0.2,542.12c3.42,3.16,1.9,7.13,1.8,10.87c-0.72,0.57-1.33,0.5-1.8-0.32C0.2,549.15,0.2,545.64,0.2,542.12z"/>
<path class="st1" d="M0.2,552.67c0.6,0.09,1.21,0.2,1.8,0.32c0,3.52,0,7.03,0.01,10.55l-0.93,0.01l-0.87-0.33
	C0.2,559.69,0.2,556.18,0.2,552.67z"/>
<path class="st2" d="M667.96,810.02c-11.35-8.75-23.88-15.63-36.33-22.58c-5.59-3.12-4.8-5.72-0.89-9.19
	c6.58-9.08,16.44-14.23,25.31-20.36c38.14-26.41,74.73-54.79,110.35-84.47c7.17-5.98,12.19-14.83,22.2-17.14
	c14.02,7.58,27.81,15.53,40.78,24.83c-32.3,32.79-68.73,60.65-105.44,88.17C705.48,783.12,686.63,796.45,667.96,810.02z"/>
<path class="st2" d="M115.94,383.68c-12.67-16.01-24.3-17.23-40.42-4.26c-1.86,1.5-3.87,2.81-5.81,4.21
	c-9.41-61.48,0.79-119.87,30.98-173.89c45.13-80.74,114.13-129.73,205.65-143.28c84.86-12.57,160.54,11.09,225.59,67.24
	c6.38,5.51,9.96,5.62,16.21,0.13c57.6-50.59,125.07-73.29,201.45-70.18c123.7,5.03,236.28,102.97,258.55,224.77
	c6.7,36.62,7.7,73.17-0.1,109.74c-0.51,2.38-1.46,4.67-2.2,7c-2.15-1.73-4.37-3.39-6.45-5.2c-13.49-11.68-23-11.64-37.93,0.24
	c-2.5-2.61-2.36-5.83-1.65-8.92c3.06-13.4,3.97-27.14,4.62-40.71c0.83-17.11-0.92-34.32-4.29-51.19
	c-19.64-98.44-98.68-172.3-198.04-184.74c-67.05-8.4-126.21,10.34-178.24,52.99c-5.89,4.83-10.85,11.09-18.46,13.67
	c-17.88-7.77-36.28-8.5-55.07-4.05c-5.86-1.9-10.14-6.18-14.71-9.95c-54.86-45.21-117.45-62.9-187.59-51.25
	c-100.28,16.66-178.01,97.89-190.71,198.18c-2.47,19.54-2.16,39.08,0.12,58.62C117.89,376.58,119.51,380.5,115.94,383.68z"/>
<path d="M1070.41,512.57c-11.66-41.67-34.42-76.79-64.56-107.41c-9.7-18.25-27.56-21.21-45.33-7.51c-2.44,2.66-3.66,5.98-4.9,9.26
	c-5.48,14.44-11.92,28.48-17.64,42.81c-5.1,12.78-5.17,12.75-17.03,6.85c-1.88-0.94-3.78-1.85-5.64-2.84
	c-65.66-34.91-131.85-68.79-197.76-103.21c-29.53-15.42-58.92-31.14-88.64-46.2c-6.58-3.34-9.99-7.74-10.63-15.37
	c-1.07-12.92-3.49-25.71-6.27-38.4c-6.58-29.97-17.09-57.38-47.01-72.11c-17.35-8.06-35.32-7.69-53.53-3.82
	c-16.65,5.41-29.89,15.47-39.7,29.82c-3.83,5.6-7.44,6.17-13.09,2.74c-8.39-5.09-16.65-10.55-25.75-14.33
	c-36.49-15.15-79.5,0.08-97.24,35.52c-15.24,30.45-28.02,62.09-41.01,93.56c-15.63,37.87-2.76,76.54,32.2,97.67
	c21.03,12.72,42.29,25.09,63.81,36.96c32.12,17.71,66.45,28.32,103.38,29.2c6.68,0.16,12.14,2.79,17.63,6.08
	c91.89,55.06,183.41,110.72,275.19,165.96c3.68,1.93,7.08,4.36,10.77,6.23c10.72,5.44,19.67,14.16,31.73,17.09
	c3.38,1.76,6.83,3.41,10.14,5.31c16.08,9.25,31.38,19.85,48.53,27.24c82.53,35.54,165.04-4.51,186.75-90.6
	c1.66-6.59,0.82-13.83,5-19.78c0-16.87,0-33.74,0-50.6C1076.7,539.29,1074.1,525.78,1070.41,512.57z M1028.18,616.82
	c-13.79,54.46-66.98,77.82-121.05,54.25c-30.25-13.19-57.12-32.71-85.34-49.65c-98.57-59.15-196.9-118.72-295.26-178.22
	c-6.82-4.13-13.81-6.32-21.86-6.19c-33.07,0.51-63.72-8.36-92.31-24.66c-19.48-11.11-38.89-22.34-58.26-33.63
	c-16.54-9.64-20.84-22.43-13.34-40c11.68-27.37,23.43-54.71,35.36-81.97c9.15-20.91,25.12-25.97,45.2-14.57
	c14.02,7.96,27.88,16.2,41.98,24.01c13.95,7.73,25.96,4.58,34.2-8.82c4.77-7.76,9.01-15.84,13.68-23.66
	c5.54-9.28,13.69-13.8,24.64-12.66c10.97,1.14,17.7,7.33,21.41,17.53c8.71,23.99,12.68,48.86,13.53,74.21
	c0.4,11.92,5.77,19.42,16.14,24.81c114.03,59.3,227.97,118.78,341.94,178.19c20.48,10.68,32.26,6.29,41.19-15.26
	c5.99-14.44,12-28.87,18.93-45.56C1026.29,504.81,1043.18,557.59,1028.18,616.82z"/>
<path d="M667.96,810.02c-1.13-4.97-5.56-6.9-9.13-9.37c-7.1-4.91-14.8-8.89-22.33-13.1c-3.95-2.21-7.12-4.7-3.66-9.7
	c0.46-0.93,0.95-1.87,1.41-2.82c12.52-25.68,10.55-50.77-5.62-73.74c-16.81-23.88-40.46-35.03-70.09-31.45
	c-23.92,2.89-46.58,10.34-68.36,20.28c-8.62,3.94-15.39,3.32-23.5-1.61c-77.34-47.06-154.52-94.38-232.05-141.12
	c-41.29-24.9-72.55-59.13-94.48-102.11c-10.14-19.87-15.53-41.31-22.44-62.25c-12.86-19.67-34.9-19.4-47.98,0.59
	c-31.9,29.87-53.96,65.53-64.25,108.27c-1.66,6.91-1.12,14.42-5.26,20.7c0,9.84,0,19.68,0,29.52c2.23,3.61,0.58,7.59,1.09,11.36
	c0.29,3.34-0.68,6.78,0.72,10.05c0.28,3.5,0.27,7.04,0.87,10.48c13.86,79.7,56.06,139.42,126.87,178.5
	c79.71,43.99,159.66,87.54,239.58,131.14c5.15,2.81,8.78,6.51,11.83,11.4c12.91,20.72,28.91,38.74,47.84,54.2
	c27.35,22.32,59.23,37.31,89.3,55.19c37.19,22.11,76.41,14.09,102.35-20.43c16.86-22.44,33.49-45.04,50.24-67.56
	C699.18,878.41,698.29,846.04,667.96,810.02z M636.66,884.83c-17.49,23.73-35.08,47.39-52.74,71
	c-11.87,15.88-24.92,18.73-42.03,8.67c-25.06-14.73-51.12-27.82-74.95-44.61c-20.39-14.36-36.87-32.46-49.24-54.07
	c-4.89-8.54-11.19-14.76-19.84-19.48c-81.83-44.58-163.73-89.04-245.22-134.25c-70.27-38.99-105.96-99.3-105.75-179.7
	c0.09-33.53,12.19-63.73,32.42-90.54c1.02-1.36,1.83-3.08,4.33-2.93c23.06,58.47,59.79,106.57,112.31,141.8
	c21.52,14.44,44.09,27.33,66.26,40.81c65.59,39.9,131.35,79.51,196.71,119.79c12.57,7.74,23.31,8.15,36.16,0.97
	c20.89-11.68,43.45-19.33,67.14-23.49c10.77-1.89,19.55,1.06,25.88,9.91c6.33,8.85,6.42,18.23,0.93,27.67
	c-3.7,6.36-7.33,12.77-10.99,19.15c-10.93,19-8.04,29.93,10.73,40.7c12.76,7.32,25.57,14.57,38.26,22.03
	C647.05,850.01,650.42,866.16,636.66,884.83z"/>
</svg>
